<svg width="177.142" height="185.999" viewBox="0 0 140 147"><rect xmlns="http://www.w3.org/2000/svg" width="140" height="147" rx="10" ry="10" fill="#111"/><path d="M38.044 94.922h14.372L45.28 36.409zm-18.045 32.215L32.744 23.462l-2.55-3.058h27.22L70.56 127.133H56.393l-1.937-16.104-22.531-.103 3.774 2.955-1.632 13.252H20zM89.622 65.36h16.412V36.104h-20.59l4.178 3.164V65.36zm30.377-35.166v41.182c0 5.402-4.384 10.092-10.091 10.092H85.443l4.179 3.16v42.204H75.554V23.16L73.007 20h36.905c5.703 0 10.087 4.487 10.087 10.194z" fill="#677491"/></svg>